<mxfile host="app.diagrams.net" modified="2023-11-26T15:14:29.577Z" agent="Mozilla/5.0 (Windows NT 10.0; Win64; x64) AppleWebKit/537.36 (KHTML, like Gecko) Chrome/119.0.0.0 Safari/537.36" etag="sisOsQoZpOVB7gskKRW1" version="22.1.4" type="device">
  <diagram name="Page-1" id="B5ogXyrxy1tjj107a3Pw">
    <mxGraphModel dx="3563" dy="2540" grid="1" gridSize="10" guides="1" tooltips="1" connect="1" arrows="1" fold="1" page="1" pageScale="1" pageWidth="850" pageHeight="1100" math="0" shadow="0">
      <root>
        <mxCell id="0" />
        <mxCell id="1" parent="0" />
        <mxCell id="xcCEIMtzRKoT9lwyk6S9-1" value="Item" style="swimlane;fontStyle=1;align=center;verticalAlign=top;childLayout=stackLayout;horizontal=1;startSize=26;horizontalStack=0;resizeParent=1;resizeParentMax=0;resizeLast=0;collapsible=1;marginBottom=0;whiteSpace=wrap;html=1;" parent="1" vertex="1">
          <mxGeometry x="190" y="10" width="160" height="80" as="geometry" />
        </mxCell>
        <mxCell id="xcCEIMtzRKoT9lwyk6S9-3" value="" style="line;strokeWidth=1;fillColor=none;align=left;verticalAlign=middle;spacingTop=-1;spacingLeft=3;spacingRight=3;rotatable=0;labelPosition=right;points=[];portConstraint=eastwest;strokeColor=inherit;" parent="xcCEIMtzRKoT9lwyk6S9-1" vertex="1">
          <mxGeometry y="26" width="160" height="8" as="geometry" />
        </mxCell>
        <mxCell id="xcCEIMtzRKoT9lwyk6S9-4" value="+ Item(string[] idents, string name, string desc)" style="text;strokeColor=none;fillColor=none;align=left;verticalAlign=top;spacingLeft=4;spacingRight=4;overflow=hidden;rotatable=0;points=[[0,0.5],[1,0.5]];portConstraint=eastwest;whiteSpace=wrap;html=1;" parent="xcCEIMtzRKoT9lwyk6S9-1" vertex="1">
          <mxGeometry y="34" width="160" height="46" as="geometry" />
        </mxCell>
        <mxCell id="xcCEIMtzRKoT9lwyk6S9-10" value="Location" style="swimlane;fontStyle=1;align=center;verticalAlign=top;childLayout=stackLayout;horizontal=1;startSize=26;horizontalStack=0;resizeParent=1;resizeParentMax=0;resizeLast=0;collapsible=1;marginBottom=0;whiteSpace=wrap;html=1;" parent="1" vertex="1">
          <mxGeometry x="500" y="10" width="220" height="190" as="geometry" />
        </mxCell>
        <mxCell id="xcCEIMtzRKoT9lwyk6S9-11" value="-&amp;nbsp;int _location_key" style="text;strokeColor=none;fillColor=none;align=left;verticalAlign=top;spacingLeft=4;spacingRight=4;overflow=hidden;rotatable=0;points=[[0,0.5],[1,0.5]];portConstraint=eastwest;whiteSpace=wrap;html=1;" parent="xcCEIMtzRKoT9lwyk6S9-10" vertex="1">
          <mxGeometry y="26" width="220" height="54" as="geometry" />
        </mxCell>
        <mxCell id="xcCEIMtzRKoT9lwyk6S9-12" value="" style="line;strokeWidth=1;fillColor=none;align=left;verticalAlign=middle;spacingTop=-1;spacingLeft=3;spacingRight=3;rotatable=0;labelPosition=right;points=[];portConstraint=eastwest;strokeColor=inherit;" parent="xcCEIMtzRKoT9lwyk6S9-10" vertex="1">
          <mxGeometry y="80" width="220" height="8" as="geometry" />
        </mxCell>
        <mxCell id="xcCEIMtzRKoT9lwyk6S9-13" value="+&amp;nbsp;bool HasKey(int key)&lt;br&gt;+&amp;nbsp;int GetKey&lt;br&gt;+&amp;nbsp;&amp;nbsp;Location(string[] id, string name, string desc, int location_key)" style="text;strokeColor=none;fillColor=none;align=left;verticalAlign=top;spacingLeft=4;spacingRight=4;overflow=hidden;rotatable=0;points=[[0,0.5],[1,0.5]];portConstraint=eastwest;whiteSpace=wrap;html=1;" parent="xcCEIMtzRKoT9lwyk6S9-10" vertex="1">
          <mxGeometry y="88" width="220" height="102" as="geometry" />
        </mxCell>
        <mxCell id="T8LB12u7JjbfXj7A1_Jm-19" style="edgeStyle=orthogonalEdgeStyle;rounded=0;orthogonalLoop=1;jettySize=auto;html=1;entryX=1;entryY=0.5;entryDx=0;entryDy=0;endArrow=diamondThin;endFill=1;" parent="1" source="xcCEIMtzRKoT9lwyk6S9-20" target="T8LB12u7JjbfXj7A1_Jm-15" edge="1">
          <mxGeometry relative="1" as="geometry" />
        </mxCell>
        <mxCell id="xcCEIMtzRKoT9lwyk6S9-20" value="&amp;lt;&amp;lt;Abstract&amp;gt;&amp;gt; Command" style="swimlane;fontStyle=1;align=center;verticalAlign=top;childLayout=stackLayout;horizontal=1;startSize=26;horizontalStack=0;resizeParent=1;resizeParentMax=0;resizeLast=0;collapsible=1;marginBottom=0;whiteSpace=wrap;html=1;" parent="1" vertex="1">
          <mxGeometry x="280" y="460" width="220" height="74" as="geometry" />
        </mxCell>
        <mxCell id="xcCEIMtzRKoT9lwyk6S9-22" value="" style="line;strokeWidth=1;fillColor=none;align=left;verticalAlign=middle;spacingTop=-1;spacingLeft=3;spacingRight=3;rotatable=0;labelPosition=right;points=[];portConstraint=eastwest;strokeColor=inherit;" parent="xcCEIMtzRKoT9lwyk6S9-20" vertex="1">
          <mxGeometry y="26" width="220" height="8" as="geometry" />
        </mxCell>
        <mxCell id="xcCEIMtzRKoT9lwyk6S9-23" value="abstract string Execute(ILocationList location, string[] text)" style="text;strokeColor=none;fillColor=none;align=left;verticalAlign=top;spacingLeft=4;spacingRight=4;overflow=hidden;rotatable=0;points=[[0,0.5],[1,0.5]];portConstraint=eastwest;whiteSpace=wrap;html=1;" parent="xcCEIMtzRKoT9lwyk6S9-20" vertex="1">
          <mxGeometry y="34" width="220" height="40" as="geometry" />
        </mxCell>
        <mxCell id="xcCEIMtzRKoT9lwyk6S9-24" value="LookCommand" style="swimlane;fontStyle=1;align=center;verticalAlign=top;childLayout=stackLayout;horizontal=1;startSize=26;horizontalStack=0;resizeParent=1;resizeParentMax=0;resizeLast=0;collapsible=1;marginBottom=0;whiteSpace=wrap;html=1;" parent="1" vertex="1">
          <mxGeometry x="120" y="600" width="230" height="188" as="geometry" />
        </mxCell>
        <mxCell id="xcCEIMtzRKoT9lwyk6S9-25" value="&lt;div&gt;+ ProgramObject _obj;&lt;/div&gt;&lt;div&gt;+ string _itemid;&lt;/div&gt;" style="text;strokeColor=none;fillColor=none;align=left;verticalAlign=top;spacingLeft=4;spacingRight=4;overflow=hidden;rotatable=0;points=[[0,0.5],[1,0.5]];portConstraint=eastwest;whiteSpace=wrap;html=1;" parent="xcCEIMtzRKoT9lwyk6S9-24" vertex="1">
          <mxGeometry y="26" width="230" height="54" as="geometry" />
        </mxCell>
        <mxCell id="xcCEIMtzRKoT9lwyk6S9-26" value="" style="line;strokeWidth=1;fillColor=none;align=left;verticalAlign=middle;spacingTop=-1;spacingLeft=3;spacingRight=3;rotatable=0;labelPosition=right;points=[];portConstraint=eastwest;strokeColor=inherit;" parent="xcCEIMtzRKoT9lwyk6S9-24" vertex="1">
          <mxGeometry y="80" width="230" height="8" as="geometry" />
        </mxCell>
        <mxCell id="xcCEIMtzRKoT9lwyk6S9-27" value="+ LookCommand()&lt;br&gt;+&amp;nbsp;override string Execute(ILocationList loc, string[] text)" style="text;strokeColor=none;fillColor=none;align=left;verticalAlign=top;spacingLeft=4;spacingRight=4;overflow=hidden;rotatable=0;points=[[0,0.5],[1,0.5]];portConstraint=eastwest;whiteSpace=wrap;html=1;" parent="xcCEIMtzRKoT9lwyk6S9-24" vertex="1">
          <mxGeometry y="88" width="230" height="100" as="geometry" />
        </mxCell>
        <mxCell id="xcCEIMtzRKoT9lwyk6S9-32" value="Post" style="swimlane;fontStyle=1;align=center;verticalAlign=top;childLayout=stackLayout;horizontal=1;startSize=26;horizontalStack=0;resizeParent=1;resizeParentMax=0;resizeLast=0;collapsible=1;marginBottom=0;whiteSpace=wrap;html=1;" parent="1" vertex="1">
          <mxGeometry x="10" y="140" width="240" height="100" as="geometry" />
        </mxCell>
        <mxCell id="xcCEIMtzRKoT9lwyk6S9-33" value="&lt;div&gt;&lt;br&gt;&lt;/div&gt;" style="text;strokeColor=none;fillColor=none;align=left;verticalAlign=top;spacingLeft=4;spacingRight=4;overflow=hidden;rotatable=0;points=[[0,0.5],[1,0.5]];portConstraint=eastwest;whiteSpace=wrap;html=1;" parent="xcCEIMtzRKoT9lwyk6S9-32" vertex="1">
          <mxGeometry y="26" width="240" height="4" as="geometry" />
        </mxCell>
        <mxCell id="xcCEIMtzRKoT9lwyk6S9-34" value="" style="line;strokeWidth=1;fillColor=none;align=left;verticalAlign=middle;spacingTop=-1;spacingLeft=3;spacingRight=3;rotatable=0;labelPosition=right;points=[];portConstraint=eastwest;strokeColor=inherit;" parent="xcCEIMtzRKoT9lwyk6S9-32" vertex="1">
          <mxGeometry y="30" width="240" height="8" as="geometry" />
        </mxCell>
        <mxCell id="xcCEIMtzRKoT9lwyk6S9-35" value="&lt;br&gt;+&amp;nbsp;string Execute&amp;nbsp;(SqlServer server, Item itemToPost, Location location)" style="text;strokeColor=none;fillColor=none;align=left;verticalAlign=top;spacingLeft=4;spacingRight=4;overflow=hidden;rotatable=0;points=[[0,0.5],[1,0.5]];portConstraint=eastwest;whiteSpace=wrap;html=1;" parent="xcCEIMtzRKoT9lwyk6S9-32" vertex="1">
          <mxGeometry y="38" width="240" height="62" as="geometry" />
        </mxCell>
        <mxCell id="xcCEIMtzRKoT9lwyk6S9-36" style="edgeStyle=orthogonalEdgeStyle;rounded=0;orthogonalLoop=1;jettySize=auto;html=1;entryX=0.583;entryY=-0.042;entryDx=0;entryDy=0;entryPerimeter=0;endArrow=block;endFill=0;" parent="1" source="xcCEIMtzRKoT9lwyk6S9-23" target="xcCEIMtzRKoT9lwyk6S9-24" edge="1">
          <mxGeometry relative="1" as="geometry" />
        </mxCell>
        <mxCell id="xcCEIMtzRKoT9lwyk6S9-53" value="ProgramObject" style="swimlane;fontStyle=1;align=center;verticalAlign=top;childLayout=stackLayout;horizontal=1;startSize=26;horizontalStack=0;resizeParent=1;resizeParentMax=0;resizeLast=0;collapsible=1;marginBottom=0;whiteSpace=wrap;html=1;" parent="1" vertex="1">
          <mxGeometry x="300" y="-208" width="210" height="198" as="geometry" />
        </mxCell>
        <mxCell id="xcCEIMtzRKoT9lwyk6S9-54" value="- string _description&lt;br&gt;- srring _name&lt;br&gt;- string[] )id" style="text;strokeColor=none;fillColor=none;align=left;verticalAlign=top;spacingLeft=4;spacingRight=4;overflow=hidden;rotatable=0;points=[[0,0.5],[1,0.5]];portConstraint=eastwest;whiteSpace=wrap;html=1;" parent="xcCEIMtzRKoT9lwyk6S9-53" vertex="1">
          <mxGeometry y="26" width="210" height="54" as="geometry" />
        </mxCell>
        <mxCell id="xcCEIMtzRKoT9lwyk6S9-55" value="" style="line;strokeWidth=1;fillColor=none;align=left;verticalAlign=middle;spacingTop=-1;spacingLeft=3;spacingRight=3;rotatable=0;labelPosition=right;points=[];portConstraint=eastwest;strokeColor=inherit;" parent="xcCEIMtzRKoT9lwyk6S9-53" vertex="1">
          <mxGeometry y="80" width="210" height="8" as="geometry" />
        </mxCell>
        <mxCell id="xcCEIMtzRKoT9lwyk6S9-56" value="+ bool AreYou(string id)&lt;br&gt;+&amp;nbsp;string Name&lt;br&gt;+ string Description&lt;br&gt;+ ProgramObject(string[] id, string name, string desc)&lt;br&gt;+&amp;nbsp;string[] IDs" style="text;strokeColor=none;fillColor=none;align=left;verticalAlign=top;spacingLeft=4;spacingRight=4;overflow=hidden;rotatable=0;points=[[0,0.5],[1,0.5]];portConstraint=eastwest;whiteSpace=wrap;html=1;" parent="xcCEIMtzRKoT9lwyk6S9-53" vertex="1">
          <mxGeometry y="88" width="210" height="110" as="geometry" />
        </mxCell>
        <mxCell id="T8LB12u7JjbfXj7A1_Jm-3" style="edgeStyle=orthogonalEdgeStyle;rounded=0;orthogonalLoop=1;jettySize=auto;html=1;endArrow=block;endFill=0;" parent="1" source="xcCEIMtzRKoT9lwyk6S9-56" target="xcCEIMtzRKoT9lwyk6S9-1" edge="1">
          <mxGeometry relative="1" as="geometry" />
        </mxCell>
        <mxCell id="T8LB12u7JjbfXj7A1_Jm-4" style="edgeStyle=orthogonalEdgeStyle;rounded=0;orthogonalLoop=1;jettySize=auto;html=1;entryX=0.5;entryY=0;entryDx=0;entryDy=0;endArrow=block;endFill=0;" parent="1" source="xcCEIMtzRKoT9lwyk6S9-54" target="xcCEIMtzRKoT9lwyk6S9-10" edge="1">
          <mxGeometry relative="1" as="geometry" />
        </mxCell>
        <mxCell id="T8LB12u7JjbfXj7A1_Jm-12" style="edgeStyle=orthogonalEdgeStyle;rounded=0;orthogonalLoop=1;jettySize=auto;html=1;entryX=1;entryY=0.5;entryDx=0;entryDy=0;endArrow=diamond;endFill=0;" parent="1" source="T8LB12u7JjbfXj7A1_Jm-5" target="xcCEIMtzRKoT9lwyk6S9-11" edge="1">
          <mxGeometry relative="1" as="geometry" />
        </mxCell>
        <mxCell id="T8LB12u7JjbfXj7A1_Jm-5" value="LocationList" style="swimlane;fontStyle=1;align=center;verticalAlign=top;childLayout=stackLayout;horizontal=1;startSize=26;horizontalStack=0;resizeParent=1;resizeParentMax=0;resizeLast=0;collapsible=1;marginBottom=0;whiteSpace=wrap;html=1;" parent="1" vertex="1">
          <mxGeometry x="1000" y="-27" width="330" height="180" as="geometry" />
        </mxCell>
        <mxCell id="T8LB12u7JjbfXj7A1_Jm-6" value="-&amp;nbsp;List&amp;lt;Location&amp;gt; locations" style="text;strokeColor=none;fillColor=none;align=left;verticalAlign=top;spacingLeft=4;spacingRight=4;overflow=hidden;rotatable=0;points=[[0,0.5],[1,0.5]];portConstraint=eastwest;whiteSpace=wrap;html=1;" parent="T8LB12u7JjbfXj7A1_Jm-5" vertex="1">
          <mxGeometry y="26" width="330" height="26" as="geometry" />
        </mxCell>
        <mxCell id="T8LB12u7JjbfXj7A1_Jm-7" value="" style="line;strokeWidth=1;fillColor=none;align=left;verticalAlign=middle;spacingTop=-1;spacingLeft=3;spacingRight=3;rotatable=0;labelPosition=right;points=[];portConstraint=eastwest;strokeColor=inherit;" parent="T8LB12u7JjbfXj7A1_Jm-5" vertex="1">
          <mxGeometry y="52" width="330" height="8" as="geometry" />
        </mxCell>
        <mxCell id="T8LB12u7JjbfXj7A1_Jm-8" value="+&amp;nbsp;LocationList()&lt;br&gt;+&amp;nbsp;AddLocation(Location location) void&lt;br&gt;+ List&amp;lt;Location&amp;gt; GetList&lt;br&gt;+ Count() int&lt;br&gt;+ProgramObject LocateItemorLoc(string id)&lt;br&gt;+&amp;nbsp;string List()" style="text;strokeColor=none;fillColor=none;align=left;verticalAlign=top;spacingLeft=4;spacingRight=4;overflow=hidden;rotatable=0;points=[[0,0.5],[1,0.5]];portConstraint=eastwest;whiteSpace=wrap;html=1;" parent="T8LB12u7JjbfXj7A1_Jm-5" vertex="1">
          <mxGeometry y="60" width="330" height="120" as="geometry" />
        </mxCell>
        <mxCell id="T8LB12u7JjbfXj7A1_Jm-15" value="&amp;lt;&amp;lt;interface&amp;gt;&amp;gt;CommandFactory" style="swimlane;fontStyle=1;align=center;verticalAlign=top;childLayout=stackLayout;horizontal=1;startSize=26;horizontalStack=0;resizeParent=1;resizeParentMax=0;resizeLast=0;collapsible=1;marginBottom=0;whiteSpace=wrap;html=1;" parent="1" vertex="1">
          <mxGeometry x="-110" y="460" width="210" height="84" as="geometry" />
        </mxCell>
        <mxCell id="T8LB12u7JjbfXj7A1_Jm-17" value="" style="line;strokeWidth=1;fillColor=none;align=left;verticalAlign=middle;spacingTop=-1;spacingLeft=3;spacingRight=3;rotatable=0;labelPosition=right;points=[];portConstraint=eastwest;strokeColor=inherit;" parent="T8LB12u7JjbfXj7A1_Jm-15" vertex="1">
          <mxGeometry y="26" width="210" height="8" as="geometry" />
        </mxCell>
        <mxCell id="T8LB12u7JjbfXj7A1_Jm-18" value="+&amp;nbsp;Command makeCommand(string[] text)" style="text;strokeColor=none;fillColor=none;align=left;verticalAlign=top;spacingLeft=4;spacingRight=4;overflow=hidden;rotatable=0;points=[[0,0.5],[1,0.5]];portConstraint=eastwest;whiteSpace=wrap;html=1;" parent="T8LB12u7JjbfXj7A1_Jm-15" vertex="1">
          <mxGeometry y="34" width="210" height="50" as="geometry" />
        </mxCell>
        <mxCell id="B4mwlcSrtj21c0jVO6mD-1" value="ILocationList" style="swimlane;fontStyle=1;align=center;verticalAlign=top;childLayout=stackLayout;horizontal=1;startSize=26;horizontalStack=0;resizeParent=1;resizeParentMax=0;resizeLast=0;collapsible=1;marginBottom=0;whiteSpace=wrap;html=1;" parent="1" vertex="1">
          <mxGeometry x="750" y="440" width="230" height="134" as="geometry" />
        </mxCell>
        <mxCell id="B4mwlcSrtj21c0jVO6mD-3" value="" style="line;strokeWidth=1;fillColor=none;align=left;verticalAlign=middle;spacingTop=-1;spacingLeft=3;spacingRight=3;rotatable=0;labelPosition=right;points=[];portConstraint=eastwest;strokeColor=inherit;" parent="B4mwlcSrtj21c0jVO6mD-1" vertex="1">
          <mxGeometry y="26" width="230" height="8" as="geometry" />
        </mxCell>
        <mxCell id="B4mwlcSrtj21c0jVO6mD-4" value="+ LocateItemorLoc(string id)&lt;br&gt;+ List&amp;lt;Location&amp;gt; GetList &amp;lt;&amp;lt;property&amp;gt;&amp;gt; get&lt;br&gt;+ string List()&lt;br&gt;+ void AddLocation(Location loc)" style="text;strokeColor=none;fillColor=none;align=left;verticalAlign=top;spacingLeft=4;spacingRight=4;overflow=hidden;rotatable=0;points=[[0,0.5],[1,0.5]];portConstraint=eastwest;whiteSpace=wrap;html=1;" parent="B4mwlcSrtj21c0jVO6mD-1" vertex="1">
          <mxGeometry y="34" width="230" height="100" as="geometry" />
        </mxCell>
        <mxCell id="B4mwlcSrtj21c0jVO6mD-5" style="edgeStyle=orthogonalEdgeStyle;rounded=0;orthogonalLoop=1;jettySize=auto;html=1;entryX=0.569;entryY=-0.058;entryDx=0;entryDy=0;entryPerimeter=0;endArrow=blockThin;endFill=0;" parent="1" source="T8LB12u7JjbfXj7A1_Jm-8" target="B4mwlcSrtj21c0jVO6mD-1" edge="1">
          <mxGeometry relative="1" as="geometry" />
        </mxCell>
        <mxCell id="B4mwlcSrtj21c0jVO6mD-6" style="edgeStyle=orthogonalEdgeStyle;rounded=0;orthogonalLoop=1;jettySize=auto;html=1;entryX=1;entryY=0.25;entryDx=0;entryDy=0;endArrow=diamondThin;endFill=0;" parent="1" target="xcCEIMtzRKoT9lwyk6S9-20" edge="1">
          <mxGeometry relative="1" as="geometry">
            <mxPoint x="750" y="479" as="sourcePoint" />
          </mxGeometry>
        </mxCell>
        <mxCell id="rA3M5NtRmFevxLukgR5l-1" value="Identifiable objects" style="swimlane;fontStyle=1;align=center;verticalAlign=top;childLayout=stackLayout;horizontal=1;startSize=26;horizontalStack=0;resizeParent=1;resizeParentMax=0;resizeLast=0;collapsible=1;marginBottom=0;whiteSpace=wrap;html=1;" parent="1" vertex="1">
          <mxGeometry x="300" y="-440" width="210" height="170" as="geometry" />
        </mxCell>
        <mxCell id="rA3M5NtRmFevxLukgR5l-2" value="- List&amp;lt;string&amp;gt; _identifiers" style="text;strokeColor=none;fillColor=none;align=left;verticalAlign=top;spacingLeft=4;spacingRight=4;overflow=hidden;rotatable=0;points=[[0,0.5],[1,0.5]];portConstraint=eastwest;whiteSpace=wrap;html=1;" parent="rA3M5NtRmFevxLukgR5l-1" vertex="1">
          <mxGeometry y="26" width="210" height="26" as="geometry" />
        </mxCell>
        <mxCell id="rA3M5NtRmFevxLukgR5l-3" value="" style="line;strokeWidth=1;fillColor=none;align=left;verticalAlign=middle;spacingTop=-1;spacingLeft=3;spacingRight=3;rotatable=0;labelPosition=right;points=[];portConstraint=eastwest;strokeColor=inherit;" parent="rA3M5NtRmFevxLukgR5l-1" vertex="1">
          <mxGeometry y="52" width="210" height="8" as="geometry" />
        </mxCell>
        <mxCell id="rA3M5NtRmFevxLukgR5l-4" value="+&amp;nbsp;AddIdentifier(string id)&lt;br&gt;+&amp;nbsp;IdentifiableObject(string[] indents)" style="text;strokeColor=none;fillColor=none;align=left;verticalAlign=top;spacingLeft=4;spacingRight=4;overflow=hidden;rotatable=0;points=[[0,0.5],[1,0.5]];portConstraint=eastwest;whiteSpace=wrap;html=1;" parent="rA3M5NtRmFevxLukgR5l-1" vertex="1">
          <mxGeometry y="60" width="210" height="110" as="geometry" />
        </mxCell>
        <mxCell id="rA3M5NtRmFevxLukgR5l-13" style="edgeStyle=orthogonalEdgeStyle;rounded=0;orthogonalLoop=1;jettySize=auto;html=1;entryX=0.551;entryY=-0.013;entryDx=0;entryDy=0;entryPerimeter=0;endArrow=block;endFill=0;" parent="1" source="rA3M5NtRmFevxLukgR5l-4" target="xcCEIMtzRKoT9lwyk6S9-53" edge="1">
          <mxGeometry relative="1" as="geometry" />
        </mxCell>
        <mxCell id="H6qBOcClt7uM8LeXSZHF-9" value="Take" style="swimlane;fontStyle=1;align=center;verticalAlign=top;childLayout=stackLayout;horizontal=1;startSize=26;horizontalStack=0;resizeParent=1;resizeParentMax=0;resizeLast=0;collapsible=1;marginBottom=0;whiteSpace=wrap;html=1;" parent="1" vertex="1">
          <mxGeometry x="-290" y="140" width="240" height="110" as="geometry" />
        </mxCell>
        <mxCell id="H6qBOcClt7uM8LeXSZHF-10" value="&lt;div&gt;&lt;br&gt;&lt;/div&gt;" style="text;strokeColor=none;fillColor=none;align=left;verticalAlign=top;spacingLeft=4;spacingRight=4;overflow=hidden;rotatable=0;points=[[0,0.5],[1,0.5]];portConstraint=eastwest;whiteSpace=wrap;html=1;" parent="H6qBOcClt7uM8LeXSZHF-9" vertex="1">
          <mxGeometry y="26" width="240" height="14" as="geometry" />
        </mxCell>
        <mxCell id="H6qBOcClt7uM8LeXSZHF-11" value="" style="line;strokeWidth=1;fillColor=none;align=left;verticalAlign=middle;spacingTop=-1;spacingLeft=3;spacingRight=3;rotatable=0;labelPosition=right;points=[];portConstraint=eastwest;strokeColor=inherit;" parent="H6qBOcClt7uM8LeXSZHF-9" vertex="1">
          <mxGeometry y="40" width="240" height="8" as="geometry" />
        </mxCell>
        <mxCell id="H6qBOcClt7uM8LeXSZHF-12" value="&lt;br&gt;+&amp;nbsp;string Execute(SqlServer server, Item itemToPost, Location location)" style="text;strokeColor=none;fillColor=none;align=left;verticalAlign=top;spacingLeft=4;spacingRight=4;overflow=hidden;rotatable=0;points=[[0,0.5],[1,0.5]];portConstraint=eastwest;whiteSpace=wrap;html=1;" parent="H6qBOcClt7uM8LeXSZHF-9" vertex="1">
          <mxGeometry y="48" width="240" height="62" as="geometry" />
        </mxCell>
        <mxCell id="D8peiMwS4GSlnoeIDgnq-9" style="edgeStyle=orthogonalEdgeStyle;rounded=0;orthogonalLoop=1;jettySize=auto;html=1;entryX=0.5;entryY=0;entryDx=0;entryDy=0;endArrow=block;endFill=0;" parent="1" source="D8peiMwS4GSlnoeIDgnq-1" target="H6qBOcClt7uM8LeXSZHF-9" edge="1">
          <mxGeometry relative="1" as="geometry">
            <Array as="points">
              <mxPoint x="-20" y="70" />
              <mxPoint x="-170" y="70" />
            </Array>
          </mxGeometry>
        </mxCell>
        <mxCell id="D8peiMwS4GSlnoeIDgnq-11" style="edgeStyle=orthogonalEdgeStyle;rounded=0;orthogonalLoop=1;jettySize=auto;html=1;endArrow=diamondThin;endFill=1;" parent="1" source="D8peiMwS4GSlnoeIDgnq-1" target="D8peiMwS4GSlnoeIDgnq-8" edge="1">
          <mxGeometry relative="1" as="geometry" />
        </mxCell>
        <mxCell id="D8peiMwS4GSlnoeIDgnq-1" value="&amp;lt;&amp;lt;Abstract&amp;gt;&amp;gt; SendForm" style="swimlane;fontStyle=1;align=center;verticalAlign=top;childLayout=stackLayout;horizontal=1;startSize=26;horizontalStack=0;resizeParent=1;resizeParentMax=0;resizeLast=0;collapsible=1;marginBottom=0;whiteSpace=wrap;html=1;" parent="1" vertex="1">
          <mxGeometry x="-100" y="-90" width="160" height="100" as="geometry" />
        </mxCell>
        <mxCell id="D8peiMwS4GSlnoeIDgnq-3" value="" style="line;strokeWidth=1;fillColor=none;align=left;verticalAlign=middle;spacingTop=-1;spacingLeft=3;spacingRight=3;rotatable=0;labelPosition=right;points=[];portConstraint=eastwest;strokeColor=inherit;" parent="D8peiMwS4GSlnoeIDgnq-1" vertex="1">
          <mxGeometry y="26" width="160" height="8" as="geometry" />
        </mxCell>
        <mxCell id="D8peiMwS4GSlnoeIDgnq-4" value="abstract string Execute(SqlServer server, Item item , Location location);" style="text;strokeColor=none;fillColor=none;align=left;verticalAlign=top;spacingLeft=4;spacingRight=4;overflow=hidden;rotatable=0;points=[[0,0.5],[1,0.5]];portConstraint=eastwest;whiteSpace=wrap;html=1;" parent="D8peiMwS4GSlnoeIDgnq-1" vertex="1">
          <mxGeometry y="34" width="160" height="66" as="geometry" />
        </mxCell>
        <mxCell id="D8peiMwS4GSlnoeIDgnq-5" value="&amp;lt;&amp;lt;Inteface&amp;gt;&amp;gt;FormFactory" style="swimlane;fontStyle=1;align=center;verticalAlign=top;childLayout=stackLayout;horizontal=1;startSize=26;horizontalStack=0;resizeParent=1;resizeParentMax=0;resizeLast=0;collapsible=1;marginBottom=0;whiteSpace=wrap;html=1;" parent="1" vertex="1">
          <mxGeometry x="10" y="-320" width="160" height="70" as="geometry" />
        </mxCell>
        <mxCell id="D8peiMwS4GSlnoeIDgnq-7" value="" style="line;strokeWidth=1;fillColor=none;align=left;verticalAlign=middle;spacingTop=-1;spacingLeft=3;spacingRight=3;rotatable=0;labelPosition=right;points=[];portConstraint=eastwest;strokeColor=inherit;" parent="D8peiMwS4GSlnoeIDgnq-5" vertex="1">
          <mxGeometry y="26" width="160" height="8" as="geometry" />
        </mxCell>
        <mxCell id="D8peiMwS4GSlnoeIDgnq-8" value="+&amp;nbsp;&amp;nbsp;SendForm MakeForm(string type)" style="text;strokeColor=none;fillColor=none;align=left;verticalAlign=top;spacingLeft=4;spacingRight=4;overflow=hidden;rotatable=0;points=[[0,0.5],[1,0.5]];portConstraint=eastwest;whiteSpace=wrap;html=1;" parent="D8peiMwS4GSlnoeIDgnq-5" vertex="1">
          <mxGeometry y="34" width="160" height="36" as="geometry" />
        </mxCell>
        <mxCell id="D8peiMwS4GSlnoeIDgnq-10" style="edgeStyle=orthogonalEdgeStyle;rounded=0;orthogonalLoop=1;jettySize=auto;html=1;entryX=0.419;entryY=-0.018;entryDx=0;entryDy=0;entryPerimeter=0;endArrow=block;endFill=0;" parent="1" edge="1">
          <mxGeometry relative="1" as="geometry">
            <Array as="points">
              <mxPoint x="-20" y="70" />
              <mxPoint x="111" y="70" />
            </Array>
            <mxPoint x="-20" y="43.8" as="sourcePoint" />
            <mxPoint x="110.55999999999995" y="140.00000000000006" as="targetPoint" />
          </mxGeometry>
        </mxCell>
        <mxCell id="HDH6Dvz1z7qNtitEzKeQ-1" style="edgeStyle=orthogonalEdgeStyle;rounded=0;orthogonalLoop=1;jettySize=auto;html=1;endArrow=diamondThin;endFill=0;" parent="1" source="DFso90_e4sYjMJZ8s3HT-1" edge="1">
          <mxGeometry relative="1" as="geometry">
            <mxPoint x="1240" y="160" as="targetPoint" />
          </mxGeometry>
        </mxCell>
        <mxCell id="4sNIQ7NUsNFq1c0W-7Gs-2" style="edgeStyle=orthogonalEdgeStyle;rounded=0;orthogonalLoop=1;jettySize=auto;html=1;endArrow=diamondThin;endFill=0;" edge="1" parent="1" source="DFso90_e4sYjMJZ8s3HT-1">
          <mxGeometry relative="1" as="geometry">
            <mxPoint x="440" y="540" as="targetPoint" />
          </mxGeometry>
        </mxCell>
        <mxCell id="DFso90_e4sYjMJZ8s3HT-1" value="SqlServer" style="swimlane;fontStyle=1;align=center;verticalAlign=top;childLayout=stackLayout;horizontal=1;startSize=26;horizontalStack=0;resizeParent=1;resizeParentMax=0;resizeLast=0;collapsible=1;marginBottom=0;whiteSpace=wrap;html=1;" parent="1" vertex="1">
          <mxGeometry x="1120" y="740" width="240" height="208" as="geometry" />
        </mxCell>
        <mxCell id="DFso90_e4sYjMJZ8s3HT-2" value="- string connnection&lt;br&gt;- LocationList loc" style="text;strokeColor=none;fillColor=none;align=left;verticalAlign=top;spacingLeft=4;spacingRight=4;overflow=hidden;rotatable=0;points=[[0,0.5],[1,0.5]];portConstraint=eastwest;whiteSpace=wrap;html=1;" parent="DFso90_e4sYjMJZ8s3HT-1" vertex="1">
          <mxGeometry y="26" width="240" height="44" as="geometry" />
        </mxCell>
        <mxCell id="DFso90_e4sYjMJZ8s3HT-3" value="" style="line;strokeWidth=1;fillColor=none;align=left;verticalAlign=middle;spacingTop=-1;spacingLeft=3;spacingRight=3;rotatable=0;labelPosition=right;points=[];portConstraint=eastwest;strokeColor=inherit;" parent="DFso90_e4sYjMJZ8s3HT-1" vertex="1">
          <mxGeometry y="70" width="240" height="8" as="geometry" />
        </mxCell>
        <mxCell id="DFso90_e4sYjMJZ8s3HT-4" value="+ SqlServer&lt;br&gt;+ Insert(Item item, Location location)&lt;br&gt;+ Remove(Location location, string name, string desc)&lt;br&gt;+ FindItems(string text)&lt;br&gt;+ GetList() LocationList&amp;nbsp;" style="text;strokeColor=none;fillColor=none;align=left;verticalAlign=top;spacingLeft=4;spacingRight=4;overflow=hidden;rotatable=0;points=[[0,0.5],[1,0.5]];portConstraint=eastwest;whiteSpace=wrap;html=1;" parent="DFso90_e4sYjMJZ8s3HT-1" vertex="1">
          <mxGeometry y="78" width="240" height="130" as="geometry" />
        </mxCell>
      </root>
    </mxGraphModel>
  </diagram>
</mxfile>
